  0
SECTION
  2
HEADER
  9
$ACADVER
  1
AC1009
  9
$FILLMODE
 70
 0
  9
$SPLFRAME
 70
 1
  9
$EXTMIN
 10
0
 20
0
 30
0.0
  9
$EXTMAX
 10
1058.33
 20
1058.33
 30
0.0
  0
ENDSEC
  0
SECTION
  2
TABLES
  0
TABLE
  2
LAYER
 70
1
  0
LAYER
  2
0
 70
     0
 62
     7
  6
CONTINUOUS
  0
ENDTAB
  0
ENDSEC
  0
SECTION
  2
ENTITIES
  0
LINE
  8
0
 62
     0
 10
0.0950846
 20
65.5214
 30
0.0
 11
103.346
 21
65.5214
 31
0.0
  0
LINE
  8
0
 62
     0
 10
103.346
 20
65.5214
 30
0.0
 11
103.346
 21
0.370692
 31
0.0
  0
LINE
  8
0
 62
     0
 10
103.346
 20
0.370692
 30
0.0
 11
0.0950846
 21
0.370692
 31
0.0
  0
LINE
  8
0
 62
     0
 10
0.0950846
 20
0.370692
 30
0.0
 11
0.0950846
 21
65.5214
 31
0.0
  0
LINE
  8
0
 62
     0
 10
8.99996
 20
20.8966
 30
0.0
 11
8.99996
 21
19.8975
 31
0.0
  0
LINE
  8
0
 62
     0
 10
8.99996
 20
19.8975
 30
0.0
 11
8.20071
 21
19.8975
 31
0.0
  0
LINE
  8
0
 62
     0
 10
8.20071
 20
19.8975
 30
0.0
 11
8.20071
 21
16.7969
 31
0.0
  0
LINE
  8
0
 62
     0
 10
8.20071
 20
16.7969
 30
0.0
 11
8.99996
 21
16.7969
 31
0.0
  0
LINE
  8
0
 62
     0
 10
8.99996
 20
16.7969
 30
0.0
 11
8.99996
 21
10.9968
 31
0.0
  0
LINE
  8
0
 62
     0
 10
8.99996
 20
10.9968
 30
0.0
 11
8.20071
 21
10.9968
 31
0.0
  0
LINE
  8
0
 62
     0
 10
8.20071
 20
10.9968
 30
0.0
 11
8.20071
 21
7.89753
 31
0.0
  0
LINE
  8
0
 62
     0
 10
8.20071
 20
7.89753
 30
0.0
 11
8.99996
 21
7.89753
 31
0.0
  0
LINE
  8
0
 62
     0
 10
8.99996
 20
7.89753
 30
0.0
 11
8.99996
 21
6.89709
 31
0.0
  0
LINE
  8
0
 62
     0
 10
8.99996
 20
6.89709
 30
0.0
 11
23.0008
 21
6.89709
 31
0.0
  0
LINE
  8
0
 62
     0
 10
23.0008
 20
6.89709
 30
0.0
 11
23.0008
 21
7.89753
 31
0.0
  0
LINE
  8
0
 62
     0
 10
23.0008
 20
7.89753
 30
0.0
 11
23.8001
 21
7.89753
 31
0.0
  0
LINE
  8
0
 62
     0
 10
23.8001
 20
7.89753
 30
0.0
 11
23.8001
 21
10.9968
 31
0.0
  0
LINE
  8
0
 62
     0
 10
23.8001
 20
10.9968
 30
0.0
 11
23.0008
 21
10.9968
 31
0.0
  0
LINE
  8
0
 62
     0
 10
23.0008
 20
10.9968
 30
0.0
 11
23.0008
 21
16.7969
 31
0.0
  0
LINE
  8
0
 62
     0
 10
23.0008
 20
16.7969
 30
0.0
 11
23.8001
 21
16.7969
 31
0.0
  0
LINE
  8
0
 62
     0
 10
23.8001
 20
16.7969
 30
0.0
 11
23.8001
 21
19.8975
 31
0.0
  0
LINE
  8
0
 62
     0
 10
23.8001
 20
19.8975
 30
0.0
 11
23.0008
 21
19.8975
 31
0.0
  0
LINE
  8
0
 62
     0
 10
23.0008
 20
19.8975
 30
0.0
 11
23.0008
 21
20.8966
 31
0.0
  0
LINE
  8
0
 62
     0
 10
23.0008
 20
20.8966
 30
0.0
 11
8.99996
 21
20.8966
 31
0.0
  0
LINE
  8
0
 62
     0
 10
32.8125
 20
20.8966
 30
0.0
 11
32.8125
 21
19.8975
 31
0.0
  0
LINE
  8
0
 62
     0
 10
32.8125
 20
19.8975
 30
0.0
 11
32.0118
 21
19.8975
 31
0.0
  0
LINE
  8
0
 62
     0
 10
32.0118
 20
19.8975
 30
0.0
 11
32.0118
 21
16.7969
 31
0.0
  0
LINE
  8
0
 62
     0
 10
32.0118
 20
16.7969
 30
0.0
 11
32.8125
 21
16.7969
 31
0.0
  0
LINE
  8
0
 62
     0
 10
32.8125
 20
16.7969
 30
0.0
 11
32.8125
 21
10.9968
 31
0.0
  0
LINE
  8
0
 62
     0
 10
32.8125
 20
10.9968
 30
0.0
 11
32.0118
 21
10.9968
 31
0.0
  0
LINE
  8
0
 62
     0
 10
32.0118
 20
10.9968
 30
0.0
 11
32.0118
 21
7.89753
 31
0.0
  0
LINE
  8
0
 62
     0
 10
32.0118
 20
7.89753
 30
0.0
 11
32.8125
 21
7.89753
 31
0.0
  0
LINE
  8
0
 62
     0
 10
32.8125
 20
7.89753
 30
0.0
 11
32.8125
 21
6.89709
 31
0.0
  0
LINE
  8
0
 62
     0
 10
32.8125
 20
6.89709
 30
0.0
 11
46.8118
 21
6.89709
 31
0.0
  0
LINE
  8
0
 62
     0
 10
46.8118
 20
6.89709
 30
0.0
 11
46.8118
 21
7.89753
 31
0.0
  0
LINE
  8
0
 62
     0
 10
46.8118
 20
7.89753
 30
0.0
 11
47.6127
 21
7.89753
 31
0.0
  0
LINE
  8
0
 62
     0
 10
47.6127
 20
7.89753
 30
0.0
 11
47.6127
 21
10.9968
 31
0.0
  0
LINE
  8
0
 62
     0
 10
47.6127
 20
10.9968
 30
0.0
 11
46.8118
 21
10.9968
 31
0.0
  0
LINE
  8
0
 62
     0
 10
46.8118
 20
10.9968
 30
0.0
 11
46.8118
 21
16.7969
 31
0.0
  0
LINE
  8
0
 62
     0
 10
46.8118
 20
16.7969
 30
0.0
 11
47.6127
 21
16.7969
 31
0.0
  0
LINE
  8
0
 62
     0
 10
47.6127
 20
16.7969
 30
0.0
 11
47.6127
 21
19.8975
 31
0.0
  0
LINE
  8
0
 62
     0
 10
47.6127
 20
19.8975
 30
0.0
 11
46.8118
 21
19.8975
 31
0.0
  0
LINE
  8
0
 62
     0
 10
46.8118
 20
19.8975
 30
0.0
 11
46.8118
 21
20.8966
 31
0.0
  0
LINE
  8
0
 62
     0
 10
46.8118
 20
20.8966
 30
0.0
 11
32.8125
 21
20.8966
 31
0.0
  0
LINE
  8
0
 62
     0
 10
56.6251
 20
20.8966
 30
0.0
 11
56.6251
 21
19.8975
 31
0.0
  0
LINE
  8
0
 62
     0
 10
56.6251
 20
19.8975
 30
0.0
 11
55.8257
 21
19.8975
 31
0.0
  0
LINE
  8
0
 62
     0
 10
55.8257
 20
19.8975
 30
0.0
 11
55.8257
 21
16.7969
 31
0.0
  0
LINE
  8
0
 62
     0
 10
55.8257
 20
16.7969
 30
0.0
 11
56.6251
 21
16.7969
 31
0.0
  0
LINE
  8
0
 62
     0
 10
56.6251
 20
16.7969
 30
0.0
 11
56.6251
 21
10.9968
 31
0.0
  0
LINE
  8
0
 62
     0
 10
56.6251
 20
10.9968
 30
0.0
 11
55.8257
 21
10.9968
 31
0.0
  0
LINE
  8
0
 62
     0
 10
55.8257
 20
10.9968
 30
0.0
 11
55.8257
 21
7.89753
 31
0.0
  0
LINE
  8
0
 62
     0
 10
55.8257
 20
7.89753
 30
0.0
 11
56.6251
 21
7.89753
 31
0.0
  0
LINE
  8
0
 62
     0
 10
56.6251
 20
7.89753
 30
0.0
 11
56.6251
 21
6.89709
 31
0.0
  0
LINE
  8
0
 62
     0
 10
56.6251
 20
6.89709
 30
0.0
 11
70.6258
 21
6.89709
 31
0.0
  0
LINE
  8
0
 62
     0
 10
70.6258
 20
6.89709
 30
0.0
 11
70.6258
 21
7.89753
 31
0.0
  0
LINE
  8
0
 62
     0
 10
70.6258
 20
7.89753
 30
0.0
 11
71.4252
 21
7.89753
 31
0.0
  0
LINE
  8
0
 62
     0
 10
71.4252
 20
7.89753
 30
0.0
 11
71.4252
 21
10.9968
 31
0.0
  0
LINE
  8
0
 62
     0
 10
71.4252
 20
10.9968
 30
0.0
 11
70.6258
 21
10.9968
 31
0.0
  0
LINE
  8
0
 62
     0
 10
70.6258
 20
10.9968
 30
0.0
 11
70.6258
 21
16.7969
 31
0.0
  0
LINE
  8
0
 62
     0
 10
70.6258
 20
16.7969
 30
0.0
 11
71.4252
 21
16.7969
 31
0.0
  0
LINE
  8
0
 62
     0
 10
71.4252
 20
16.7969
 30
0.0
 11
71.4252
 21
19.8975
 31
0.0
  0
LINE
  8
0
 62
     0
 10
71.4252
 20
19.8975
 30
0.0
 11
70.6258
 21
19.8975
 31
0.0
  0
LINE
  8
0
 62
     0
 10
70.6258
 20
19.8975
 30
0.0
 11
70.6258
 21
20.8966
 31
0.0
  0
LINE
  8
0
 62
     0
 10
70.6258
 20
20.8966
 30
0.0
 11
56.6251
 21
20.8966
 31
0.0
  0
LINE
  8
0
 62
     0
 10
80.4376
 20
20.8966
 30
0.0
 11
80.4376
 21
19.8975
 31
0.0
  0
LINE
  8
0
 62
     0
 10
80.4376
 20
19.8975
 30
0.0
 11
79.6368
 21
19.8975
 31
0.0
  0
LINE
  8
0
 62
     0
 10
79.6368
 20
19.8975
 30
0.0
 11
79.6368
 21
16.7969
 31
0.0
  0
LINE
  8
0
 62
     0
 10
79.6368
 20
16.7969
 30
0.0
 11
80.4376
 21
16.7969
 31
0.0
  0
LINE
  8
0
 62
     0
 10
80.4376
 20
16.7969
 30
0.0
 11
80.4376
 21
10.9968
 31
0.0
  0
LINE
  8
0
 62
     0
 10
80.4376
 20
10.9968
 30
0.0
 11
79.6368
 21
10.9968
 31
0.0
  0
LINE
  8
0
 62
     0
 10
79.6368
 20
10.9968
 30
0.0
 11
79.6368
 21
7.89753
 31
0.0
  0
LINE
  8
0
 62
     0
 10
79.6368
 20
7.89753
 30
0.0
 11
80.4376
 21
7.89753
 31
0.0
  0
LINE
  8
0
 62
     0
 10
80.4376
 20
7.89753
 30
0.0
 11
80.4376
 21
6.89709
 31
0.0
  0
LINE
  8
0
 62
     0
 10
80.4376
 20
6.89709
 30
0.0
 11
94.4369
 21
6.89709
 31
0.0
  0
LINE
  8
0
 62
     0
 10
94.4369
 20
6.89709
 30
0.0
 11
94.4369
 21
7.89753
 31
0.0
  0
LINE
  8
0
 62
     0
 10
94.4369
 20
7.89753
 30
0.0
 11
95.2377
 21
7.89753
 31
0.0
  0
LINE
  8
0
 62
     0
 10
95.2377
 20
7.89753
 30
0.0
 11
95.2377
 21
10.9968
 31
0.0
  0
LINE
  8
0
 62
     0
 10
95.2377
 20
10.9968
 30
0.0
 11
94.4369
 21
10.9968
 31
0.0
  0
LINE
  8
0
 62
     0
 10
94.4369
 20
10.9968
 30
0.0
 11
94.4369
 21
16.7969
 31
0.0
  0
LINE
  8
0
 62
     0
 10
94.4369
 20
16.7969
 30
0.0
 11
95.2377
 21
16.7969
 31
0.0
  0
LINE
  8
0
 62
     0
 10
95.2377
 20
16.7969
 30
0.0
 11
95.2377
 21
19.8975
 31
0.0
  0
LINE
  8
0
 62
     0
 10
95.2377
 20
19.8975
 30
0.0
 11
94.4369
 21
19.8975
 31
0.0
  0
LINE
  8
0
 62
     0
 10
94.4369
 20
19.8975
 30
0.0
 11
94.4369
 21
20.8966
 31
0.0
  0
LINE
  8
0
 62
     0
 10
94.4369
 20
20.8966
 30
0.0
 11
80.4376
 21
20.8966
 31
0.0
  0
LINE
  8
0
 62
     0
 10
6.61871
 20
39.9464
 30
0.0
 11
6.61871
 21
38.9474
 31
0.0
  0
LINE
  8
0
 62
     0
 10
6.61871
 20
38.9474
 30
0.0
 11
5.81808
 21
38.9474
 31
0.0
  0
LINE
  8
0
 62
     0
 10
5.81808
 20
38.9474
 30
0.0
 11
5.81808
 21
35.8468
 31
0.0
  0
LINE
  8
0
 62
     0
 10
5.81808
 20
35.8468
 30
0.0
 11
6.61871
 21
35.8468
 31
0.0
  0
LINE
  8
0
 62
     0
 10
6.61871
 20
35.8468
 30
0.0
 11
6.61871
 21
30.0468
 31
0.0
  0
LINE
  8
0
 62
     0
 10
6.61871
 20
30.0468
 30
0.0
 11
5.81808
 21
30.0468
 31
0.0
  0
LINE
  8
0
 62
     0
 10
5.81808
 20
30.0468
 30
0.0
 11
5.81808
 21
26.9475
 31
0.0
  0
LINE
  8
0
 62
     0
 10
5.81808
 20
26.9475
 30
0.0
 11
6.61871
 21
26.9475
 31
0.0
  0
LINE
  8
0
 62
     0
 10
6.61871
 20
26.9475
 30
0.0
 11
6.61871
 21
25.9471
 31
0.0
  0
LINE
  8
0
 62
     0
 10
6.61871
 20
25.9471
 30
0.0
 11
20.6196
 21
25.9471
 31
0.0
  0
LINE
  8
0
 62
     0
 10
20.6196
 20
25.9471
 30
0.0
 11
20.6196
 21
26.9475
 31
0.0
  0
LINE
  8
0
 62
     0
 10
20.6196
 20
26.9475
 30
0.0
 11
21.4188
 21
26.9475
 31
0.0
  0
LINE
  8
0
 62
     0
 10
21.4188
 20
26.9475
 30
0.0
 11
21.4188
 21
30.0468
 31
0.0
  0
LINE
  8
0
 62
     0
 10
21.4188
 20
30.0468
 30
0.0
 11
20.6196
 21
30.0468
 31
0.0
  0
LINE
  8
0
 62
     0
 10
20.6196
 20
30.0468
 30
0.0
 11
20.6196
 21
35.8468
 31
0.0
  0
LINE
  8
0
 62
     0
 10
20.6196
 20
35.8468
 30
0.0
 11
21.4188
 21
35.8468
 31
0.0
  0
LINE
  8
0
 62
     0
 10
21.4188
 20
35.8468
 30
0.0
 11
21.4188
 21
38.9474
 31
0.0
  0
LINE
  8
0
 62
     0
 10
21.4188
 20
38.9474
 30
0.0
 11
20.6196
 21
38.9474
 31
0.0
  0
LINE
  8
0
 62
     0
 10
20.6196
 20
38.9474
 30
0.0
 11
20.6196
 21
39.9464
 31
0.0
  0
LINE
  8
0
 62
     0
 10
20.6196
 20
39.9464
 30
0.0
 11
6.61871
 21
39.9464
 31
0.0
  0
LINE
  8
0
 62
     0
 10
25.6701
 20
39.9464
 30
0.0
 11
25.6701
 21
38.9474
 31
0.0
  0
LINE
  8
0
 62
     0
 10
25.6701
 20
38.9474
 30
0.0
 11
24.8695
 21
38.9474
 31
0.0
  0
LINE
  8
0
 62
     0
 10
24.8695
 20
38.9474
 30
0.0
 11
24.8695
 21
35.8468
 31
0.0
  0
LINE
  8
0
 62
     0
 10
24.8695
 20
35.8468
 30
0.0
 11
25.6701
 21
35.8468
 31
0.0
  0
LINE
  8
0
 62
     0
 10
25.6701
 20
35.8468
 30
0.0
 11
25.6701
 21
30.0468
 31
0.0
  0
LINE
  8
0
 62
     0
 10
25.6701
 20
30.0468
 30
0.0
 11
24.8695
 21
30.0468
 31
0.0
  0
LINE
  8
0
 62
     0
 10
24.8695
 20
30.0468
 30
0.0
 11
24.8695
 21
26.9475
 31
0.0
  0
LINE
  8
0
 62
     0
 10
24.8695
 20
26.9475
 30
0.0
 11
25.6701
 21
26.9475
 31
0.0
  0
LINE
  8
0
 62
     0
 10
25.6701
 20
26.9475
 30
0.0
 11
25.6701
 21
25.9471
 31
0.0
  0
LINE
  8
0
 62
     0
 10
25.6701
 20
25.9471
 30
0.0
 11
39.6695
 21
25.9471
 31
0.0
  0
LINE
  8
0
 62
     0
 10
39.6695
 20
25.9471
 30
0.0
 11
39.6695
 21
26.9475
 31
0.0
  0
LINE
  8
0
 62
     0
 10
39.6695
 20
26.9475
 30
0.0
 11
40.4689
 21
26.9475
 31
0.0
  0
LINE
  8
0
 62
     0
 10
40.4689
 20
26.9475
 30
0.0
 11
40.4689
 21
30.0468
 31
0.0
  0
LINE
  8
0
 62
     0
 10
40.4689
 20
30.0468
 30
0.0
 11
39.6695
 21
30.0468
 31
0.0
  0
LINE
  8
0
 62
     0
 10
39.6695
 20
30.0468
 30
0.0
 11
39.6695
 21
35.8468
 31
0.0
  0
LINE
  8
0
 62
     0
 10
39.6695
 20
35.8468
 30
0.0
 11
40.4689
 21
35.8468
 31
0.0
  0
LINE
  8
0
 62
     0
 10
40.4689
 20
35.8468
 30
0.0
 11
40.4689
 21
38.9474
 31
0.0
  0
LINE
  8
0
 62
     0
 10
40.4689
 20
38.9474
 30
0.0
 11
39.6695
 21
38.9474
 31
0.0
  0
LINE
  8
0
 62
     0
 10
39.6695
 20
38.9474
 30
0.0
 11
39.6695
 21
39.9464
 31
0.0
  0
LINE
  8
0
 62
     0
 10
39.6695
 20
39.9464
 30
0.0
 11
25.6701
 21
39.9464
 31
0.0
  0
LINE
  8
0
 62
     0
 10
44.7202
 20
39.9464
 30
0.0
 11
44.7202
 21
38.9474
 31
0.0
  0
LINE
  8
0
 62
     0
 10
44.7202
 20
38.9474
 30
0.0
 11
43.9194
 21
38.9474
 31
0.0
  0
LINE
  8
0
 62
     0
 10
43.9194
 20
38.9474
 30
0.0
 11
43.9194
 21
35.8468
 31
0.0
  0
LINE
  8
0
 62
     0
 10
43.9194
 20
35.8468
 30
0.0
 11
44.7202
 21
35.8468
 31
0.0
  0
LINE
  8
0
 62
     0
 10
44.7202
 20
35.8468
 30
0.0
 11
44.7202
 21
30.0468
 31
0.0
  0
LINE
  8
0
 62
     0
 10
44.7202
 20
30.0468
 30
0.0
 11
43.9194
 21
30.0468
 31
0.0
  0
LINE
  8
0
 62
     0
 10
43.9194
 20
30.0468
 30
0.0
 11
43.9194
 21
26.9475
 31
0.0
  0
LINE
  8
0
 62
     0
 10
43.9194
 20
26.9475
 30
0.0
 11
44.7202
 21
26.9475
 31
0.0
  0
LINE
  8
0
 62
     0
 10
44.7202
 20
26.9475
 30
0.0
 11
44.7202
 21
25.9471
 31
0.0
  0
LINE
  8
0
 62
     0
 10
44.7202
 20
25.9471
 30
0.0
 11
58.7195
 21
25.9471
 31
0.0
  0
LINE
  8
0
 62
     0
 10
58.7195
 20
25.9471
 30
0.0
 11
58.7195
 21
26.9475
 31
0.0
  0
LINE
  8
0
 62
     0
 10
58.7195
 20
26.9475
 30
0.0
 11
59.5189
 21
26.9475
 31
0.0
  0
LINE
  8
0
 62
     0
 10
59.5189
 20
26.9475
 30
0.0
 11
59.5189
 21
30.0468
 31
0.0
  0
LINE
  8
0
 62
     0
 10
59.5189
 20
30.0468
 30
0.0
 11
58.7195
 21
30.0468
 31
0.0
  0
LINE
  8
0
 62
     0
 10
58.7195
 20
30.0468
 30
0.0
 11
58.7195
 21
35.8468
 31
0.0
  0
LINE
  8
0
 62
     0
 10
58.7195
 20
35.8468
 30
0.0
 11
59.5189
 21
35.8468
 31
0.0
  0
LINE
  8
0
 62
     0
 10
59.5189
 20
35.8468
 30
0.0
 11
59.5189
 21
38.9474
 31
0.0
  0
LINE
  8
0
 62
     0
 10
59.5189
 20
38.9474
 30
0.0
 11
58.7195
 21
38.9474
 31
0.0
  0
LINE
  8
0
 62
     0
 10
58.7195
 20
38.9474
 30
0.0
 11
58.7195
 21
39.9464
 31
0.0
  0
LINE
  8
0
 62
     0
 10
58.7195
 20
39.9464
 30
0.0
 11
44.7202
 21
39.9464
 31
0.0
  0
LINE
  8
0
 62
     0
 10
63.7702
 20
39.9464
 30
0.0
 11
63.7702
 21
38.9474
 31
0.0
  0
LINE
  8
0
 62
     0
 10
63.7702
 20
38.9474
 30
0.0
 11
62.9694
 21
38.9474
 31
0.0
  0
LINE
  8
0
 62
     0
 10
62.9694
 20
38.9474
 30
0.0
 11
62.9694
 21
35.8468
 31
0.0
  0
LINE
  8
0
 62
     0
 10
62.9694
 20
35.8468
 30
0.0
 11
63.7702
 21
35.8468
 31
0.0
  0
LINE
  8
0
 62
     0
 10
63.7702
 20
35.8468
 30
0.0
 11
63.7702
 21
30.0468
 31
0.0
  0
LINE
  8
0
 62
     0
 10
63.7702
 20
30.0468
 30
0.0
 11
62.9694
 21
30.0468
 31
0.0
  0
LINE
  8
0
 62
     0
 10
62.9694
 20
30.0468
 30
0.0
 11
62.9694
 21
26.9475
 31
0.0
  0
LINE
  8
0
 62
     0
 10
62.9694
 20
26.9475
 30
0.0
 11
63.7702
 21
26.9475
 31
0.0
  0
LINE
  8
0
 62
     0
 10
63.7702
 20
26.9475
 30
0.0
 11
63.7702
 21
25.9471
 31
0.0
  0
LINE
  8
0
 62
     0
 10
63.7702
 20
25.9471
 30
0.0
 11
77.7695
 21
25.9471
 31
0.0
  0
LINE
  8
0
 62
     0
 10
77.7695
 20
25.9471
 30
0.0
 11
77.7695
 21
26.9475
 31
0.0
  0
LINE
  8
0
 62
     0
 10
77.7695
 20
26.9475
 30
0.0
 11
78.5689
 21
26.9475
 31
0.0
  0
LINE
  8
0
 62
     0
 10
78.5689
 20
26.9475
 30
0.0
 11
78.5689
 21
30.0468
 31
0.0
  0
LINE
  8
0
 62
     0
 10
78.5689
 20
30.0468
 30
0.0
 11
77.7695
 21
30.0468
 31
0.0
  0
LINE
  8
0
 62
     0
 10
77.7695
 20
30.0468
 30
0.0
 11
77.7695
 21
35.8468
 31
0.0
  0
LINE
  8
0
 62
     0
 10
77.7695
 20
35.8468
 30
0.0
 11
78.5689
 21
35.8468
 31
0.0
  0
LINE
  8
0
 62
     0
 10
78.5689
 20
35.8468
 30
0.0
 11
78.5689
 21
38.9474
 31
0.0
  0
LINE
  8
0
 62
     0
 10
78.5689
 20
38.9474
 30
0.0
 11
77.7695
 21
38.9474
 31
0.0
  0
LINE
  8
0
 62
     0
 10
77.7695
 20
38.9474
 30
0.0
 11
77.7695
 21
39.9464
 31
0.0
  0
LINE
  8
0
 62
     0
 10
77.7695
 20
39.9464
 30
0.0
 11
63.7702
 21
39.9464
 31
0.0
  0
LINE
  8
0
 62
     0
 10
82.8202
 20
39.9464
 30
0.0
 11
82.8202
 21
38.9474
 31
0.0
  0
LINE
  8
0
 62
     0
 10
82.8202
 20
38.9474
 30
0.0
 11
82.0194
 21
38.9474
 31
0.0
  0
LINE
  8
0
 62
     0
 10
82.0194
 20
38.9474
 30
0.0
 11
82.0194
 21
35.8468
 31
0.0
  0
LINE
  8
0
 62
     0
 10
82.0194
 20
35.8468
 30
0.0
 11
82.8202
 21
35.8468
 31
0.0
  0
LINE
  8
0
 62
     0
 10
82.8202
 20
35.8468
 30
0.0
 11
82.8202
 21
30.0468
 31
0.0
  0
LINE
  8
0
 62
     0
 10
82.8202
 20
30.0468
 30
0.0
 11
82.0194
 21
30.0468
 31
0.0
  0
LINE
  8
0
 62
     0
 10
82.0194
 20
30.0468
 30
0.0
 11
82.0194
 21
26.9475
 31
0.0
  0
LINE
  8
0
 62
     0
 10
82.0194
 20
26.9475
 30
0.0
 11
82.8202
 21
26.9475
 31
0.0
  0
LINE
  8
0
 62
     0
 10
82.8202
 20
26.9475
 30
0.0
 11
82.8202
 21
25.9471
 31
0.0
  0
LINE
  8
0
 62
     0
 10
82.8202
 20
25.9471
 30
0.0
 11
96.8195
 21
25.9471
 31
0.0
  0
LINE
  8
0
 62
     0
 10
96.8195
 20
25.9471
 30
0.0
 11
96.8195
 21
26.9475
 31
0.0
  0
LINE
  8
0
 62
     0
 10
96.8195
 20
26.9475
 30
0.0
 11
97.6189
 21
26.9475
 31
0.0
  0
LINE
  8
0
 62
     0
 10
97.6189
 20
26.9475
 30
0.0
 11
97.6189
 21
30.0468
 31
0.0
  0
LINE
  8
0
 62
     0
 10
97.6189
 20
30.0468
 30
0.0
 11
96.8195
 21
30.0468
 31
0.0
  0
LINE
  8
0
 62
     0
 10
96.8195
 20
30.0468
 30
0.0
 11
96.8195
 21
35.8468
 31
0.0
  0
LINE
  8
0
 62
     0
 10
96.8195
 20
35.8468
 30
0.0
 11
97.6189
 21
35.8468
 31
0.0
  0
LINE
  8
0
 62
     0
 10
97.6189
 20
35.8468
 30
0.0
 11
97.6189
 21
38.9474
 31
0.0
  0
LINE
  8
0
 62
     0
 10
97.6189
 20
38.9474
 30
0.0
 11
96.8195
 21
38.9474
 31
0.0
  0
LINE
  8
0
 62
     0
 10
96.8195
 20
38.9474
 30
0.0
 11
96.8195
 21
39.9464
 31
0.0
  0
LINE
  8
0
 62
     0
 10
96.8195
 20
39.9464
 30
0.0
 11
82.8202
 21
39.9464
 31
0.0
  0
LINE
  8
0
 62
     0
 10
6.61871
 20
58.9979
 30
0.0
 11
6.61871
 21
57.9974
 31
0.0
  0
LINE
  8
0
 62
     0
 10
6.61871
 20
57.9974
 30
0.0
 11
5.81808
 21
57.9974
 31
0.0
  0
LINE
  8
0
 62
     0
 10
5.81808
 20
57.9974
 30
0.0
 11
5.81808
 21
54.8982
 31
0.0
  0
LINE
  8
0
 62
     0
 10
5.81808
 20
54.8982
 30
0.0
 11
6.61871
 21
54.8982
 31
0.0
  0
LINE
  8
0
 62
     0
 10
6.61871
 20
54.8982
 30
0.0
 11
6.61871
 21
49.0982
 31
0.0
  0
LINE
  8
0
 62
     0
 10
6.61871
 20
49.0982
 30
0.0
 11
5.81808
 21
49.0982
 31
0.0
  0
LINE
  8
0
 62
     0
 10
5.81808
 20
49.0982
 30
0.0
 11
5.81808
 21
45.9976
 31
0.0
  0
LINE
  8
0
 62
     0
 10
5.81808
 20
45.9976
 30
0.0
 11
6.61871
 21
45.9976
 31
0.0
  0
LINE
  8
0
 62
     0
 10
6.61871
 20
45.9976
 30
0.0
 11
6.61871
 21
44.9972
 31
0.0
  0
LINE
  8
0
 62
     0
 10
6.61871
 20
44.9972
 30
0.0
 11
20.6196
 21
44.9972
 31
0.0
  0
LINE
  8
0
 62
     0
 10
20.6196
 20
44.9972
 30
0.0
 11
20.6196
 21
45.9976
 31
0.0
  0
LINE
  8
0
 62
     0
 10
20.6196
 20
45.9976
 30
0.0
 11
21.4188
 21
45.9976
 31
0.0
  0
LINE
  8
0
 62
     0
 10
21.4188
 20
45.9976
 30
0.0
 11
21.4188
 21
49.0982
 31
0.0
  0
LINE
  8
0
 62
     0
 10
21.4188
 20
49.0982
 30
0.0
 11
20.6196
 21
49.0982
 31
0.0
  0
LINE
  8
0
 62
     0
 10
20.6196
 20
49.0982
 30
0.0
 11
20.6196
 21
54.8982
 31
0.0
  0
LINE
  8
0
 62
     0
 10
20.6196
 20
54.8982
 30
0.0
 11
21.4188
 21
54.8982
 31
0.0
  0
LINE
  8
0
 62
     0
 10
21.4188
 20
54.8982
 30
0.0
 11
21.4188
 21
57.9974
 31
0.0
  0
LINE
  8
0
 62
     0
 10
21.4188
 20
57.9974
 30
0.0
 11
20.6196
 21
57.9974
 31
0.0
  0
LINE
  8
0
 62
     0
 10
20.6196
 20
57.9974
 30
0.0
 11
20.6196
 21
58.9979
 31
0.0
  0
LINE
  8
0
 62
     0
 10
20.6196
 20
58.9979
 30
0.0
 11
6.61871
 21
58.9979
 31
0.0
  0
LINE
  8
0
 62
     0
 10
25.6701
 20
58.9979
 30
0.0
 11
25.6701
 21
57.9974
 31
0.0
  0
LINE
  8
0
 62
     0
 10
25.6701
 20
57.9974
 30
0.0
 11
24.8695
 21
57.9974
 31
0.0
  0
LINE
  8
0
 62
     0
 10
24.8695
 20
57.9974
 30
0.0
 11
24.8695
 21
54.8982
 31
0.0
  0
LINE
  8
0
 62
     0
 10
24.8695
 20
54.8982
 30
0.0
 11
25.6701
 21
54.8982
 31
0.0
  0
LINE
  8
0
 62
     0
 10
25.6701
 20
54.8982
 30
0.0
 11
25.6701
 21
49.0982
 31
0.0
  0
LINE
  8
0
 62
     0
 10
25.6701
 20
49.0982
 30
0.0
 11
24.8695
 21
49.0982
 31
0.0
  0
LINE
  8
0
 62
     0
 10
24.8695
 20
49.0982
 30
0.0
 11
24.8695
 21
45.9976
 31
0.0
  0
LINE
  8
0
 62
     0
 10
24.8695
 20
45.9976
 30
0.0
 11
25.6701
 21
45.9976
 31
0.0
  0
LINE
  8
0
 62
     0
 10
25.6701
 20
45.9976
 30
0.0
 11
25.6701
 21
44.9972
 31
0.0
  0
LINE
  8
0
 62
     0
 10
25.6701
 20
44.9972
 30
0.0
 11
39.6695
 21
44.9972
 31
0.0
  0
LINE
  8
0
 62
     0
 10
39.6695
 20
44.9972
 30
0.0
 11
39.6695
 21
45.9976
 31
0.0
  0
LINE
  8
0
 62
     0
 10
39.6695
 20
45.9976
 30
0.0
 11
40.4689
 21
45.9976
 31
0.0
  0
LINE
  8
0
 62
     0
 10
40.4689
 20
45.9976
 30
0.0
 11
40.4689
 21
49.0982
 31
0.0
  0
LINE
  8
0
 62
     0
 10
40.4689
 20
49.0982
 30
0.0
 11
39.6695
 21
49.0982
 31
0.0
  0
LINE
  8
0
 62
     0
 10
39.6695
 20
49.0982
 30
0.0
 11
39.6695
 21
54.8982
 31
0.0
  0
LINE
  8
0
 62
     0
 10
39.6695
 20
54.8982
 30
0.0
 11
40.4689
 21
54.8982
 31
0.0
  0
LINE
  8
0
 62
     0
 10
40.4689
 20
54.8982
 30
0.0
 11
40.4689
 21
57.9974
 31
0.0
  0
LINE
  8
0
 62
     0
 10
40.4689
 20
57.9974
 30
0.0
 11
39.6695
 21
57.9974
 31
0.0
  0
LINE
  8
0
 62
     0
 10
39.6695
 20
57.9974
 30
0.0
 11
39.6695
 21
58.9979
 31
0.0
  0
LINE
  8
0
 62
     0
 10
39.6695
 20
58.9979
 30
0.0
 11
25.6701
 21
58.9979
 31
0.0
  0
LINE
  8
0
 62
     0
 10
44.7202
 20
58.9979
 30
0.0
 11
44.7202
 21
57.9974
 31
0.0
  0
LINE
  8
0
 62
     0
 10
44.7202
 20
57.9974
 30
0.0
 11
43.9194
 21
57.9974
 31
0.0
  0
LINE
  8
0
 62
     0
 10
43.9194
 20
57.9974
 30
0.0
 11
43.9194
 21
54.8982
 31
0.0
  0
LINE
  8
0
 62
     0
 10
43.9194
 20
54.8982
 30
0.0
 11
44.7202
 21
54.8982
 31
0.0
  0
LINE
  8
0
 62
     0
 10
44.7202
 20
54.8982
 30
0.0
 11
44.7202
 21
49.0982
 31
0.0
  0
LINE
  8
0
 62
     0
 10
44.7202
 20
49.0982
 30
0.0
 11
43.9194
 21
49.0982
 31
0.0
  0
LINE
  8
0
 62
     0
 10
43.9194
 20
49.0982
 30
0.0
 11
43.9194
 21
45.9976
 31
0.0
  0
LINE
  8
0
 62
     0
 10
43.9194
 20
45.9976
 30
0.0
 11
44.7202
 21
45.9976
 31
0.0
  0
LINE
  8
0
 62
     0
 10
44.7202
 20
45.9976
 30
0.0
 11
44.7202
 21
44.9972
 31
0.0
  0
LINE
  8
0
 62
     0
 10
44.7202
 20
44.9972
 30
0.0
 11
58.7195
 21
44.9972
 31
0.0
  0
LINE
  8
0
 62
     0
 10
58.7195
 20
44.9972
 30
0.0
 11
58.7195
 21
45.9976
 31
0.0
  0
LINE
  8
0
 62
     0
 10
58.7195
 20
45.9976
 30
0.0
 11
59.5189
 21
45.9976
 31
0.0
  0
LINE
  8
0
 62
     0
 10
59.5189
 20
45.9976
 30
0.0
 11
59.5189
 21
49.0982
 31
0.0
  0
LINE
  8
0
 62
     0
 10
59.5189
 20
49.0982
 30
0.0
 11
58.7195
 21
49.0982
 31
0.0
  0
LINE
  8
0
 62
     0
 10
58.7195
 20
49.0982
 30
0.0
 11
58.7195
 21
54.8982
 31
0.0
  0
LINE
  8
0
 62
     0
 10
58.7195
 20
54.8982
 30
0.0
 11
59.5189
 21
54.8982
 31
0.0
  0
LINE
  8
0
 62
     0
 10
59.5189
 20
54.8982
 30
0.0
 11
59.5189
 21
57.9974
 31
0.0
  0
LINE
  8
0
 62
     0
 10
59.5189
 20
57.9974
 30
0.0
 11
58.7195
 21
57.9974
 31
0.0
  0
LINE
  8
0
 62
     0
 10
58.7195
 20
57.9974
 30
0.0
 11
58.7195
 21
58.9979
 31
0.0
  0
LINE
  8
0
 62
     0
 10
58.7195
 20
58.9979
 30
0.0
 11
44.7202
 21
58.9979
 31
0.0
  0
LINE
  8
0
 62
     0
 10
63.7702
 20
58.9979
 30
0.0
 11
63.7702
 21
57.9974
 31
0.0
  0
LINE
  8
0
 62
     0
 10
63.7702
 20
57.9974
 30
0.0
 11
62.9694
 21
57.9974
 31
0.0
  0
LINE
  8
0
 62
     0
 10
62.9694
 20
57.9974
 30
0.0
 11
62.9694
 21
54.8982
 31
0.0
  0
LINE
  8
0
 62
     0
 10
62.9694
 20
54.8982
 30
0.0
 11
63.7702
 21
54.8982
 31
0.0
  0
LINE
  8
0
 62
     0
 10
63.7702
 20
54.8982
 30
0.0
 11
63.7702
 21
49.0982
 31
0.0
  0
LINE
  8
0
 62
     0
 10
63.7702
 20
49.0982
 30
0.0
 11
62.9694
 21
49.0982
 31
0.0
  0
LINE
  8
0
 62
     0
 10
62.9694
 20
49.0982
 30
0.0
 11
62.9694
 21
45.9976
 31
0.0
  0
LINE
  8
0
 62
     0
 10
62.9694
 20
45.9976
 30
0.0
 11
63.7702
 21
45.9976
 31
0.0
  0
LINE
  8
0
 62
     0
 10
63.7702
 20
45.9976
 30
0.0
 11
63.7702
 21
44.9972
 31
0.0
  0
LINE
  8
0
 62
     0
 10
63.7702
 20
44.9972
 30
0.0
 11
77.7695
 21
44.9972
 31
0.0
  0
LINE
  8
0
 62
     0
 10
77.7695
 20
44.9972
 30
0.0
 11
77.7695
 21
45.9976
 31
0.0
  0
LINE
  8
0
 62
     0
 10
77.7695
 20
45.9976
 30
0.0
 11
78.5689
 21
45.9976
 31
0.0
  0
LINE
  8
0
 62
     0
 10
78.5689
 20
45.9976
 30
0.0
 11
78.5689
 21
49.0982
 31
0.0
  0
LINE
  8
0
 62
     0
 10
78.5689
 20
49.0982
 30
0.0
 11
77.7695
 21
49.0982
 31
0.0
  0
LINE
  8
0
 62
     0
 10
77.7695
 20
49.0982
 30
0.0
 11
77.7695
 21
54.8982
 31
0.0
  0
LINE
  8
0
 62
     0
 10
77.7695
 20
54.8982
 30
0.0
 11
78.5689
 21
54.8982
 31
0.0
  0
LINE
  8
0
 62
     0
 10
78.5689
 20
54.8982
 30
0.0
 11
78.5689
 21
57.9974
 31
0.0
  0
LINE
  8
0
 62
     0
 10
78.5689
 20
57.9974
 30
0.0
 11
77.7695
 21
57.9974
 31
0.0
  0
LINE
  8
0
 62
     0
 10
77.7695
 20
57.9974
 30
0.0
 11
77.7695
 21
58.9979
 31
0.0
  0
LINE
  8
0
 62
     0
 10
77.7695
 20
58.9979
 30
0.0
 11
63.7702
 21
58.9979
 31
0.0
  0
LINE
  8
0
 62
     0
 10
82.8202
 20
58.9979
 30
0.0
 11
82.8202
 21
57.9974
 31
0.0
  0
LINE
  8
0
 62
     0
 10
82.8202
 20
57.9974
 30
0.0
 11
82.0194
 21
57.9974
 31
0.0
  0
LINE
  8
0
 62
     0
 10
82.0194
 20
57.9974
 30
0.0
 11
82.0194
 21
54.8982
 31
0.0
  0
LINE
  8
0
 62
     0
 10
82.0194
 20
54.8982
 30
0.0
 11
82.8202
 21
54.8982
 31
0.0
  0
LINE
  8
0
 62
     0
 10
82.8202
 20
54.8982
 30
0.0
 11
82.8202
 21
49.0982
 31
0.0
  0
LINE
  8
0
 62
     0
 10
82.8202
 20
49.0982
 30
0.0
 11
82.0194
 21
49.0982
 31
0.0
  0
LINE
  8
0
 62
     0
 10
82.0194
 20
49.0982
 30
0.0
 11
82.0194
 21
45.9976
 31
0.0
  0
LINE
  8
0
 62
     0
 10
82.0194
 20
45.9976
 30
0.0
 11
82.8202
 21
45.9976
 31
0.0
  0
LINE
  8
0
 62
     0
 10
82.8202
 20
45.9976
 30
0.0
 11
82.8202
 21
44.9972
 31
0.0
  0
LINE
  8
0
 62
     0
 10
82.8202
 20
44.9972
 30
0.0
 11
96.8195
 21
44.9972
 31
0.0
  0
LINE
  8
0
 62
     0
 10
96.8195
 20
44.9972
 30
0.0
 11
96.8195
 21
45.9976
 31
0.0
  0
LINE
  8
0
 62
     0
 10
96.8195
 20
45.9976
 30
0.0
 11
97.6189
 21
45.9976
 31
0.0
  0
LINE
  8
0
 62
     0
 10
97.6189
 20
45.9976
 30
0.0
 11
97.6189
 21
49.0982
 31
0.0
  0
LINE
  8
0
 62
     0
 10
97.6189
 20
49.0982
 30
0.0
 11
96.8195
 21
49.0982
 31
0.0
  0
LINE
  8
0
 62
     0
 10
96.8195
 20
49.0982
 30
0.0
 11
96.8195
 21
54.8982
 31
0.0
  0
LINE
  8
0
 62
     0
 10
96.8195
 20
54.8982
 30
0.0
 11
97.6189
 21
54.8982
 31
0.0
  0
LINE
  8
0
 62
     0
 10
97.6189
 20
54.8982
 30
0.0
 11
97.6189
 21
57.9974
 31
0.0
  0
LINE
  8
0
 62
     0
 10
97.6189
 20
57.9974
 30
0.0
 11
96.8195
 21
57.9974
 31
0.0
  0
LINE
  8
0
 62
     0
 10
96.8195
 20
57.9974
 30
0.0
 11
96.8195
 21
58.9979
 31
0.0
  0
LINE
  8
0
 62
     0
 10
96.8195
 20
58.9979
 30
0.0
 11
82.8202
 21
58.9979
 31
0.0
  0
ENDSEC
  0
EOF
